PathFileType	4	(X/Y/Z)	Patient4_TMGait_0pt5_01_left_05.trc.trc
DataRate	CameraRate	NumFrames	NumMarkers	Units	OrigDataRate	OrigDataStartFrame	OrigNumFrames
71.065989847716	71.065989847716	4	33	mm	71.065989847716	36	       141
Frame#	Time	L.ASIS			Sacral			L.Shoulder			Chest			R.Shoulder			Neck			R.ASIS			R.Thigh.Superior			R.Thigh.Lateral			R.Thigh.Inferior			R.Patella			L.Thigh.Superior			L.Thigh.Lateral			L.Thigh.Inferior			L.Patella			L.Shank.Superior			L.Shank.Lateral			L.Shank.Inferior			R.Shank.Superior			R.Shank.Lateral			R.Shank.Inferior			R.Heel			R.Midfoot.Superior			R.Midfoot.Lateral			R.Toe			L.Heel			L.Midfoot.Lateral			L.Midfoot.Superior			L.Toe			L.Elbow			L.Wrist			R.Elbow			R.Wrist			
		X1	Y1	Z1	X2	Y2	Z2	X3	Y3	Z3	X4	Y4	Z4	X5	Y5	Z5	X6	Y6	Z6	X7	Y7	Z7	X8	Y8	Z8	X9	Y9	Z9	X10	Y10	Z10	X11	Y11	Z11	X12	Y12	Z12	X13	Y13	Z13	X14	Y14	Z14	X15	Y15	Z15	X16	Y16	Z16	X17	Y17	Z17	X18	Y18	Z18	X19	Y19	Z19	X20	Y20	Z20	X21	Y21	Z21	X22	Y22	Z22	X23	Y23	Z23	X24	Y24	Z24	X25	Y25	Z25	X26	Y26	Z26	X27	Y27	Z27	X28	Y28	Z28	X29	Y29	Z29	X30	Y30	Z30	X31	Y31	Z31	X32	Y32	Z32	X33	Y33	Z33	

36	7.062500000000	729.612341719828	957.723970739908	338.774541246562	521.215028858000	1002.281568260352	506.302968725681	668.645490247261	1429.729975907662	315.169942479676	785.322916773628	1364.007563435370	468.526568295128	712.238427586752	1439.688762027124	647.404954750295	679.549624360246	1492.456068369678	464.683845228815	754.294252149211	936.791376296560	612.951622642763	760.080920916745	723.152822844187	588.902973251336	660.183507145092	626.561002601369	649.912182152163	726.327528370689	559.598465508842	572.904699193121	706.818037840540	461.003534955789	582.969180128396	801.665757656932	764.396354861465	374.604088333124	735.079087184841	639.651024423684	307.322813619095	828.595265459033	573.218072064621	372.040926937479	838.556994416111	502.084978187239	377.949470842120	821.311922006180	428.767621540820	366.206170594818	747.795374855063	305.870385749463	310.078665616343	813.662906865031	200.101279409204	378.388480053110	645.862781167026	387.441926888562	588.965119077998	541.584749821999	317.392886564223	651.169555352339	548.569623935407	211.614261789777	592.908442744299	367.050341108906	85.527876237560	565.224042651994	544.952294893200	103.528061000839	605.934444523395	445.408820500031	59.100156704733	639.992573430859	649.454319366990	36.551633539778	636.243251066491	700.580674221405	37.381894704348	410.861710929910	778.880245726550	35.650364513602	333.948309674530	858.944160214060	98.401658887797	363.924621575639	988.971238232383	50.264035038642	343.687427700776	588.634583396781	1083.173694792916	206.502727936835	629.195313677006	826.627409652445	184.148242640648	779.575995946344	1105.421685925886	774.562235565336	1018.123026335951	1032.549427913995	718.598097571338	
37	7.076571428571	730.384114476546	958.966089878885	335.880234614246	521.690908506898	1003.307541652899	503.087034202884	669.741075698694	1430.707874020465	312.013704751954	785.940464555259	1365.053910027213	465.755647392876	712.419701665505	1441.111646554797	644.304988756411	680.145529979189	1493.516673886566	461.424777128258	754.393446246674	937.742043661583	609.892551557674	763.213522668071	724.419500622442	586.504082172829	665.057293608938	626.572656839680	647.547663268510	732.967133777641	560.112820596402	571.105404772574	714.422111515683	459.860311444540	582.632915689826	801.468991524805	764.376469338859	371.205848063314	733.070884885937	639.885751809541	305.239439786248	825.993409438566	572.700298635892	369.886766954637	835.197746120760	501.720164609202	376.667939835497	817.494139846873	428.427203857013	365.204789337493	743.268459356848	305.990618446141	309.275015040998	807.670975604332	199.925602806279	378.268750323612	650.834544257539	387.401703938461	588.191946643415	544.219370551543	320.726194856363	650.022697892457	548.693196580051	214.386088283155	592.703279290865	363.450972816754	94.371212356305	565.112270789528	541.879059285755	104.844004401228	606.070656960930	440.542809839422	64.496943160510	639.865488984986	642.828910871576	36.166241981518	636.087789155969	693.507600730774	37.335587357905	410.829137746224	771.763392806840	35.663113330503	333.862470646541	851.758581107986	98.482458401439	363.837465406140	981.823037442749	50.555037050595	343.460789289852	591.737620165842	1083.688425888332	202.907524199106	635.641305989054	827.495063346173	181.926265480692	772.412788484104	1105.564830907931	772.629254475003	1006.967727501365	1017.942437248624	718.059562961379	
38	7.090642857143	731.069711240292	960.036263058034	333.049079264148	522.054497914824	1004.072417416761	499.906261223454	670.845888497383	1431.556940465972	308.949215625509	786.471924740223	1365.945549004418	463.131271036718	712.375637049924	1442.255612505550	641.355637568093	680.641838919142	1494.403025468084	458.287949302185	754.439865353589	938.520639525952	606.877492609790	766.890553019856	725.749159266691	584.056343652006	670.832585773076	626.456538878322	645.207756384989	740.599501915864	560.675346445319	569.260925255872	723.117465019233	458.773260632726	582.222778028778	801.080688779024	764.029926196285	367.856863555780	730.959595163872	639.932897764171	303.130243978468	823.187847336964	572.015297104794	367.878049316440	831.674312927334	501.199397165854	375.437673695382	813.522261272955	427.941408607599	364.226674890171	738.621231199938	305.932804390884	308.528918294887	801.594981242370	199.613202316141	378.183364867575	656.953137357330	387.396507622085	587.402041362983	548.025437073789	324.310222487508	648.856876909254	549.757335423303	217.494199703849	592.453925856771	360.855833571507	104.446799609011	564.861078509468	539.321076829030	106.382867169062	606.139358085886	436.242336031987	70.854504795191	639.660162693666	636.110376512631	35.627292109783	635.955661819465	686.332424952299	37.242884431364	410.815016684581	764.559460651168	35.596379410945	333.806320683879	844.555666534117	98.400208307252	363.822417421257	974.638698083433	50.541581315406	343.303995955777	594.792165720463	1084.141461427400	199.245988324117	642.581222438173	828.425958133696	179.712968982020	764.780489409967	1105.425181887711	770.515948978653	994.344267637831	1002.864021303519	717.762005968200	
39	7.104714285714	731.651547552845	960.912716891716	330.282486011408	522.288174631442	1004.546466286259	496.776416041635	671.932467740173	1432.245186530737	306.012085975506	786.907003765542	1366.643562834687	460.677005596326	712.107379599842	1443.079554311235	638.588310957395	681.045953226384	1495.086024654044	455.306748205466	754.423846537417	939.096203442420	603.924049540141	771.061303172204	727.156585540326	581.515636277620	677.484222590082	626.256136161544	642.888767222281	749.147647177585	561.337884404944	567.328499773225	732.841849411794	457.818879761223	581.663320101249	800.546933533930	763.431669975783	364.667894502793	728.912131337167	639.842833608808	301.010840512459	820.327163937813	571.227432747743	366.058475470298	828.127120359119	500.547104352488	374.270861428653	809.527544035402	427.323290490691	363.275027690340	733.975781213851	305.728919693262	307.803174786246	795.517917151388	199.181379595893	378.117409129457	664.193295646298	387.485979669787	586.545699611530	553.013453763214	328.177669813359	647.636138551702	551.802629632941	220.987589593595	592.117017409527	359.452444711552	115.801647933276	564.387703606442	537.315770652264	108.245793480996	606.110573045860	432.628022283517	78.283020224188	639.318155322973	629.294799064986	34.909501670943	635.874805683693	679.105522721572	37.126419799811	410.807037555391	757.319596082297	35.479049428047	333.769971313418	837.376648968659	98.190561084934	363.871885281103	967.458826972060	50.269535394827	343.218873539564	597.836050761371	1084.500381678321	195.518059614466	650.006637047656	829.403925983225	177.520684590550	756.694453725474	1104.960173592414	768.206122210208	980.166242517742	987.404772492560	717.732367112681	
